<svg version="1.2" baseProfile="tiny-ps" xmlns="http://www.w3.org/2000/svg" viewBox="0 0 1640 300" width="1640" height="300">
	<title>Nuevo proyecto</title>
	<style>
		tspan { white-space:pre }
	</style>
	<path id="Martín Neme" fill="#f0f0f5" aria-label="Martín Neme"  d="m338.3 200h25.65v-63.3l23.7 63.3h20.7l23.55-63.15v63.15h25.65v-105.3h-30.15l-29.25 72.9l-29.55-72.9h-30.3zm132.6-42c0 26.4 16.35 43.2 36.75 43.2c12.45 0 21.3-5.7 25.95-13.05v11.85h25.65v-83.7h-25.65v11.85c-4.5-7.35-13.35-13.05-25.8-13.05c-20.55 0-36.9 16.5-36.9 42.9zm62.7 0.15c0 13.35-8.55 20.7-18.3 20.7c-9.6 0-18.3-7.5-18.3-20.85c0-13.35 8.7-20.55 18.3-20.55c9.75 0 18.3 7.35 18.3 20.7zm69.9 3c0-14.4 7.05-18.6 19.2-18.6h7.05v-27.15c-11.25 0-20.4 6-26.25 14.85v-13.95h-25.65v83.7h25.65zm42.6 9.75c0 21.75 12.15 29.1 29.55 29.1h13.05v-21.75h-9.15c-5.7 0-7.8-2.1-7.8-7.05v-33.6h16.8v-21.3h-16.8v-20.4h-25.65v20.4h-10.2v21.3h10.2zm58.8 29.1h25.65v-83.7h-25.65zm-5.85-107.1v17.7l36.15-15.15v-19.95zm109.8 107.1h25.5v-48.9c0-22.5-12.9-35.7-32.25-35.7c-11.25 0-20.25 4.95-25.35 12v-11.1h-25.65v83.7h25.65v-45.45c0-11.4 6.3-17.7 16.05-17.7c9.75 0 16.05 6.3 16.05 17.7zm143.7-105.3v65.25l-42.9-65.25h-25.65v105.3h25.65v-64.95l42.9 64.95h25.65v-105.3zm81.15 40.95c8.55 0 15.75 5.25 15.75 14.4h-32.1c1.5-9.3 7.95-14.4 16.35-14.4zm40.05 36.6h-27.3c-2.1 4.5-6.15 8.1-13.35 8.1c-8.25 0-15-5.1-15.9-16.05h58.05c0.3-2.55 0.45-5.1 0.45-7.5c0-25.5-17.25-41.7-41.7-41.7c-24.9 0-42.3 16.5-42.3 43.05c0 26.55 17.7 43.05 42.3 43.05c20.85 0 35.7-12.6 39.75-28.95zm130.8 27.75h25.5v-48.9c0-22.5-13.35-35.7-34.05-35.7c-12.15 0-22.65 6.75-28.2 15.6c-5.7-10.05-15.9-15.6-28.5-15.6c-10.95 0-19.5 4.65-24.45 11.4v-10.5h-25.65v83.7h25.65v-45.45c0-10.95 6.3-16.95 16.05-16.95c9.75 0 16.05 6 16.05 16.95v45.45h25.5v-45.45c0-10.95 6.3-16.95 16.05-16.95c9.75 0 16.05 6 16.05 16.95zm80.4-64.35c8.55 0 15.75 5.25 15.75 14.4h-32.1c1.5-9.3 7.95-14.4 16.35-14.4zm40.05 36.6h-27.3c-2.1 4.5-6.15 8.1-13.35 8.1c-8.25 0-15-5.1-15.9-16.05h58.05c0.3-2.55 0.45-5.1 0.45-7.5c0-25.5-17.25-41.7-41.7-41.7c-24.9 0-42.3 16.5-42.3 43.05c0 26.55 17.7 43.05 42.3 43.05c20.85 0 35.7-12.6 39.75-28.95z" />
</svg>